<svg width="63" height="65" viewBox="0 0 63 65" fill="none" xmlns="http://www.w3.org/2000/svg">
<path d="M31.0196 61.3188C27.8196 60.3188 22.9196 58.6159 19.3196 57.9159C8.01959 56.0159 7.21958 53.9981 2.41958 41.9981C0.319584 36.7981 -0.0804158 34.4981 0.319584 29.5981C0.819584 22.4981 5.21958 13.1981 10.2196 8.39811C15.0196 3.79811 23.5196 0.098114 29.5196 0.098114C35.5196 0.098114 48.2196 3.39811 52.7196 6.19811C57.7196 9.29811 58.6713 20.2981 58.8811 26.5981C59.0909 32.8981 62.7584 36.3416 61.9155 42.5981C61.0726 48.8546 56.8092 49.3345 54.5898 51.11C52.3705 52.8854 50.4196 55.3981 49.5196 56.9981C47.9196 60.1981 44.0196 63.8341 41.6196 63.9981C39.2196 64.1622 34.2196 62.4188 31.0196 61.3188ZM42.4196 54.2981C42.7196 53.7981 41.8196 50.0981 40.4196 46.0981L37.8196 38.7981L40.9196 35.9981C42.9196 34.1981 44.0196 32.2981 44.0196 30.4981V27.6981L41.0196 30.5981C39.4196 32.1981 37.8196 33.1981 37.4196 32.8981C37.1196 32.4981 37.2196 30.1981 37.5196 27.6981C38.5196 21.5981 41.9196 18.0981 47.2196 18.0981C50.7196 18.0981 51.1196 17.8981 50.8196 15.8981C50.5196 13.8981 49.9196 13.5981 46.2196 13.6981C38.1196 13.8981 33.0196 20.2981 33.0196 30.1981C33.0196 35.1981 32.7196 36.0981 30.4196 37.4981C26.6196 40.0981 24.6196 39.1981 23.8196 34.5981C23.2196 30.9981 23.4196 30.3981 26.3196 27.8981C28.0196 26.2981 30.1196 25.0981 31.0196 25.0981C32.2196 24.9981 32.1196 24.6981 30.6196 23.5981C29.4196 22.6981 27.7196 22.3981 26.2196 22.7981C23.8196 23.3981 23.7196 23.2981 24.2196 18.6981C24.8196 13.5981 24.0196 12.4981 21.1196 14.0981C19.5196 14.8981 19.0196 16.3981 18.8196 20.8981L18.5196 26.5981H15.2196C11.0196 26.5981 11.2196 28.9981 15.6196 30.9981C18.3196 32.1981 18.8196 32.9981 19.3196 36.6981C19.5196 39.0981 20.3196 41.7981 21.0196 42.5981C22.6196 44.4981 27.3196 44.4981 31.0196 42.5981L33.9196 41.0981L35.1196 45.2981C37.2196 53.2981 40.5196 57.2981 42.4196 54.2981ZM17.6196 47.5085C17.6196 47.5085 19.1196 45.6981 17.6196 44.5981C15.4114 42.9788 11.4196 45.0981 14.2196 47.8981C15.8196 49.4981 17.6196 47.5085 17.6196 47.5085Z" fill="#35AADC"/>
</svg>
